<svg width="124" height="26" viewBox="0 0 124 26" fill="none" xmlns="http://www.w3.org/2000/svg">
  <path d="M0 0.64H8.384C10.112 0.64 11.584 0.928 12.8 1.504C14.016 2.08 14.944 2.896 15.584 3.952C16.224 5.008 16.544 6.24 16.544 7.648C16.544 9.056 16.224 10.288 15.584 11.344C14.944 12.4 14.016 13.216 12.8 13.792C11.584 14.368 10.112 14.656 8.384 14.656H3.136V24H0V0.64ZM8.192 11.92C10.048 11.92 11.456 11.536 12.416 10.768C13.376 10 13.856 9 13.856 7.648C13.856 6.304 13.376 5.264 12.416 4.528C11.456 3.792 10.048 3.424 8.192 3.424H3.136V11.92H8.192Z" fill="#fe3d00"/>
  <path d="M21.2308 0.64H24.3348L33.7508 24H30.3668L28.0708 18.08H17.4228L15.1268 24H11.7748L21.2308 0.64ZM27.0548 15.488L22.7748 4.304L18.4628 15.488H27.0548Z" fill="#fe3d00"/>
  <path d="M43.3284 24.32C41.2164 24.32 39.3044 23.904 37.5924 23.072C35.8964 22.24 34.5684 21.056 33.6084 19.52C32.6484 17.984 32.1684 16.224 32.1684 14.24C32.1684 12.256 32.6484 10.496 33.6084 8.96C34.5684 7.424 35.8964 6.24 37.5924 5.408C39.3044 4.576 41.2164 4.16 43.3284 4.16C45.4404 4.16 47.3444 4.576 49.0404 5.408C50.7364 6.24 52.0644 7.424 53.0244 8.96C53.9844 10.496 54.4644 12.256 54.4644 14.24C54.4644 16.224 53.9844 17.984 53.0244 19.52C52.0644 21.056 50.7364 22.24 49.0404 23.072C47.3444 23.904 45.4404 24.32 43.3284 24.32ZM43.3284 21.536C44.8164 21.536 46.1604 21.232 47.3604 20.624C48.5604 20.016 49.5124 19.136 50.2164 17.984C50.9204 16.832 51.2724 15.536 51.2724 14.096C51.2724 12.656 50.9204 11.36 50.2164 10.208C49.5124 9.056 48.5604 8.176 47.3604 7.568C46.1604 6.96 44.8164 6.656 43.3284 6.656C41.8404 6.656 40.4964 6.96 39.2964 7.568C38.0964 8.176 37.1444 9.056 36.4404 10.208C35.7364 11.36 35.3844 12.656 35.3844 14.096C35.3844 15.536 35.7364 16.832 36.4404 17.984C37.1444 19.136 38.0964 20.016 39.2964 20.624C40.4964 21.232 41.8404 21.536 43.3284 21.536Z" fill="#fe3d00"/>
  <path d="M66.8839 0.64H69.7279V21.248H81.4679V24H66.8839V0.64Z" fill="#fe3d00"/>
  <path d="M85.3287 14.816L75.4247 4.48H79.3967L86.8647 12.272L94.3647 4.48H98.2407L88.4647 14.592L98.8887 24H94.9167L86.9607 15.824L79.1047 24H75.2287L85.3287 14.816Z" fill="#fe3d00"/>
  <path d="M99.0258 4.48H102.13L105.61 13.12L109.314 4.48H111.946L115.554 13.12L119.106 4.48H122.114L116.706 16.8H113.77L110.594 9.44L107.418 16.8H104.482L99.0258 4.48Z" fill="#cccccc"/>
  <path d="M123.429 4.48H126.437L126.533 7.36H124.709C123.333 7.36 122.293 7.696 121.589 8.368C120.885 9.04 120.533 10.096 120.533 11.536V16.8H117.597V4.48H120.533V6.928C120.789 6.096 121.269 5.456 121.973 5.008C122.677 4.656 123.557 4.48 124.613 4.48H126.245H123.429Z" fill="#cccccc"/>
  <path d="M126.989 10.64C126.989 9.232 127.213 8 127.661 6.944C128.109 5.888 128.797 5.056 129.725 4.448C130.653 3.84 131.789 3.536 133.133 3.536C134.477 3.536 135.613 3.84 136.541 4.448C137.469 5.056 138.157 5.888 138.605 6.944C139.053 8 139.277 9.232 139.277 10.64C139.277 12.048 139.053 13.28 138.605 14.336C138.157 15.392 137.469 16.208 136.541 16.784C135.613 17.36 134.477 17.648 133.133 17.648C131.789 17.648 130.653 17.36 129.725 16.784C128.797 16.208 128.109 15.392 127.661 14.336C127.213 13.28 126.989 12.048 126.989 10.64Z" fill="#cccccc"/>
</svg> 